<svg xmlns="http://www.w3.org/2000/svg" viewBox="0 0 360 180" width="360" height="180" fill="none" font-family="'IBM Plex Sans','Segoe UI',Arial,sans-serif">
  <!-- Open lines: channels converge into one inbox. -->
  <path d="M62 38 C 130 38, 130 80, 178 84" stroke="#BFD0FA" stroke-width="2"/>
  <path d="M62 90 H 178" stroke="#BFD0FA" stroke-width="2"/>
  <path d="M62 142 C 130 142, 130 100, 178 96" stroke="#BFD0FA" stroke-width="2"/>
  <circle cx="44" cy="38" r="17" fill="#229ED9"/>
  <path d="M35.5 38 l17 -7 -3 17 -5.3 -4 -2.8 2.8 .5 -4.6 7 -6.3 -8.8 5.2z" fill="#FFFFFF"/>
  <circle cx="44" cy="90" r="17" fill="#25D366"/>
  <path d="M36 99 l2 -5.5 a9 9 0 1 1 3.6 3.4z" stroke="#FFFFFF" stroke-width="1.8" stroke-linejoin="round"/>
  <circle cx="44" cy="142" r="17" fill="#E1306C"/>
  <rect x="36" y="134" width="16" height="16" rx="5" stroke="#FFFFFF" stroke-width="1.8"/>
  <circle cx="44" cy="142" r="3.8" stroke="#FFFFFF" stroke-width="1.8"/>
  <circle cx="48.7" cy="137.3" r="1" fill="#FFFFFF"/>
  <rect x="178" y="22" width="166" height="136" rx="10" fill="#FFFFFF" stroke="#E1E4E9"/>
  <text x="192" y="42" font-size="10" font-weight="600" fill="#171A20">Входящие</text>
  <rect x="178" y="52" width="166" height="1" fill="#EEF0F3"/>
  <g>
    <circle cx="198" cy="70" r="5" fill="#229ED9"/>
    <rect x="210" y="64" width="70" height="5" rx="2.5" fill="#373D48"/>
    <rect x="210" y="73" width="100" height="4" rx="2" fill="#CBD0D8"/>
    <circle cx="330" cy="68" r="3.5" fill="#2A52C4"/>
  </g>
  <rect x="178" y="86" width="166" height="1" fill="#EEF0F3"/>
  <g>
    <rect x="178" y="87" width="166" height="32" fill="#EFF3FE"/>
    <rect x="178" y="87" width="3" height="32" fill="#2A52C4"/>
    <circle cx="198" cy="103" r="5" fill="#25D366"/>
    <rect x="210" y="97" width="60" height="5" rx="2.5" fill="#373D48"/>
    <rect x="210" y="106" width="88" height="4" rx="2" fill="#979EAA"/>
  </g>
  <rect x="178" y="119" width="166" height="1" fill="#EEF0F3"/>
  <g>
    <circle cx="198" cy="137" r="5" fill="#E1306C"/>
    <rect x="210" y="131" width="76" height="5" rx="2.5" fill="#373D48"/>
    <rect x="210" y="140" width="92" height="4" rx="2" fill="#CBD0D8"/>
  </g>
</svg>
